<svg width="33" height="33" viewBox="0 0 33 33" fill="none" xmlns="http://www.w3.org/2000/svg">
<path d="M17.7426 8.5H14.5426V14.9H8.14258V18.1H14.5426V24.5H17.7426V18.1H24.1426V14.9H17.7426V8.5ZM16.1426 0.5C7.32658 0.5 0.142578 7.684 0.142578 16.5C0.142578 25.316 7.32658 32.5 16.1426 32.5C24.9586 32.5 32.1426 25.316 32.1426 16.5C32.1426 7.684 24.9586 0.5 16.1426 0.5ZM16.1426 29.3C9.08658 29.3 3.34258 23.556 3.34258 16.5C3.34258 9.444 9.08658 3.7 16.1426 3.7C23.1986 3.7 28.9426 9.444 28.9426 16.5C28.9426 23.556 23.1986 29.3 16.1426 29.3Z" fill="white"/>
</svg>
