<svg width="33" height="33" viewBox="0 0 33 33" fill="none" xmlns="http://www.w3.org/2000/svg">
<rect width="33" height="33" rx="4" fill="white"/>
<mask id="mask0_1030_7868" style="mask-type:alpha" maskUnits="userSpaceOnUse" x="0" y="0" width="33" height="33">
<rect width="33" height="33" fill="white"/>
</mask>
<g mask="url(#mask0_1030_7868)">
<path d="M16.5 27.5C15.7437 27.5 15.0964 27.2307 14.5578 26.6922C14.0193 26.1536 13.75 25.5063 13.75 24.75C13.75 23.9937 14.0193 23.3464 14.5578 22.8078C15.0964 22.2693 15.7437 22 16.5 22C17.2563 22 17.9036 22.2693 18.4422 22.8078C18.9807 23.3464 19.25 23.9937 19.25 24.75C19.25 25.5063 18.9807 26.1536 18.4422 26.6922C17.9036 27.2307 17.2563 27.5 16.5 27.5ZM16.5 19.25C15.7437 19.25 15.0964 18.9807 14.5578 18.4422C14.0193 17.9036 13.75 17.2563 13.75 16.5C13.75 15.7437 14.0193 15.0964 14.5578 14.5578C15.0964 14.0193 15.7437 13.75 16.5 13.75C17.2563 13.75 17.9036 14.0193 18.4422 14.5578C18.9807 15.0964 19.25 15.7437 19.25 16.5C19.25 17.2563 18.9807 17.9036 18.4422 18.4422C17.9036 18.9807 17.2563 19.25 16.5 19.25ZM16.5 11C15.7437 11 15.0964 10.7307 14.5578 10.1922C14.0193 9.65365 13.75 9.00625 13.75 8.25C13.75 7.49375 14.0193 6.84635 14.5578 6.30781C15.0964 5.76927 15.7437 5.5 16.5 5.5C17.2563 5.5 17.9036 5.76927 18.4422 6.30781C18.9807 6.84635 19.25 7.49375 19.25 8.25C19.25 9.00625 18.9807 9.65365 18.4422 10.1922C17.9036 10.7307 17.2563 11 16.5 11Z" fill="#823038"/>
</g>
</svg>
