<svg width="24" height="24" viewBox="0 0 24 24" fill="none" xmlns="http://www.w3.org/2000/svg">
<mask id="mask0_869_37919" style="mask-type:alpha" maskUnits="userSpaceOnUse" x="0" y="0" width="24" height="24">
<rect width="24" height="24" fill="#D9D9D9"/>
</mask>
<g mask="url(#mask0_869_37919)">
<path d="M12 20C10.6424 20 9.39394 19.6909 8.25455 19.0727C7.11515 18.4545 6.18182 17.6303 5.45455 16.6V18.5455H4V14.1818H8.36364V15.6364H6.56364C7.14545 16.5091 7.91212 17.2121 8.86364 17.7455C9.81515 18.2788 10.8606 18.5455 12 18.5455C12.9091 18.5455 13.7606 18.3727 14.5545 18.0273C15.3485 17.6818 16.0394 17.2152 16.6273 16.6273C17.2152 16.0394 17.6818 15.3485 18.0273 14.5545C18.3727 13.7606 18.5455 12.9091 18.5455 12H20C20 13.103 19.7909 14.1394 19.3727 15.1091C18.9545 16.0788 18.3818 16.9273 17.6545 17.6545C16.9273 18.3818 16.0788 18.9545 15.1091 19.3727C14.1394 19.7909 13.103 20 12 20ZM4 12C4 10.897 4.20909 9.86061 4.62727 8.89091C5.04545 7.92121 5.61818 7.07273 6.34545 6.34545C7.07273 5.61818 7.92121 5.04545 8.89091 4.62727C9.86061 4.20909 10.897 4 12 4C13.3576 4 14.6061 4.30909 15.7455 4.92727C16.8848 5.54545 17.8182 6.3697 18.5455 7.4V5.45455H20V9.81818H15.6364V8.36364H17.4364C16.8545 7.49091 16.0879 6.78788 15.1364 6.25455C14.1848 5.72121 13.1394 5.45455 12 5.45455C11.0909 5.45455 10.2394 5.62727 9.44546 5.97273C8.65152 6.31818 7.96061 6.78485 7.37273 7.37273C6.78485 7.96061 6.31818 8.65152 5.97273 9.44546C5.62727 10.2394 5.45455 11.0909 5.45455 12H4Z" fill="#823038"/>
</g>
</svg>
